<svg data-noselect="" viewBox="0 0 400 300" width="400" height="300" preserveAspectRatio="none" version="1.1" 
	xmlns="http://www.w3.org/2000/svg" style="background: rgba(255, 255, 255, 0);">
	<defs></defs>
	<g id="shape_wMqjwfDIFK" transform="translate(101.08108108108107,48.64864864864865) rotate(0,0,0) scale(1.6216216216216217,1.6216216216216217)" filter="" style="cursor: move; opacity: 1;">
		<g>
			<rect fill="rgba(0,0,0,0)" width="142" height="101" x="-10" y="-10"></rect>
			<svg version="1.1" id="图层_1" 
				xmlns="http://www.w3.org/2000/svg" 
				xmlns:xlink="http://www.w3.org/1999/xlink" x="0px" y="0px" style="enable-background:new 0 0 283.46 226.77;" xml:space="preserve" viewBox="79.69792175292969 72.66400146484375 122.941162109375 81.0830078125" width="122" height="81" preserveAspectRatio="none" data-parent="shape_wMqjwfDIFK">
				<linearGradient id="SVGID_1_" gradientUnits="userSpaceOnUse" x1="175.6863" y1="143.998" x2="175.6863" y2="69.28">
					<stop offset="0" style="" stop-color="#28569E"></stop>
					<stop offset="1" style="" stop-color="#34B5B5"></stop>
				</linearGradient>
				<path style="" d="M197.987,98.272c7.101-12.04,3.96-25.608,3.96-25.608s-5.178,15.534-27.613,15.247
	c-22.437-0.288-25.601,13.807-25.601,13.807c6.039-7.766,14.669-8.918,26.75-8.343c12.082,0.576,18.697-4.314,18.697-4.314
	c1.15,11.794-11.506,22.437-11.506,22.437c4.327-1.945,7.738-4.343,10.428-6.983c0.47,18.775-16.181,27.334-16.181,27.334
	c4.21-1.535,7.59-3.556,10.307-5.85c-2.296,12.112-15.628,14.984-15.628,14.984c15.76-1.576,18.158-13.387,18.504-17.778
	C198.685,113.638,198.236,101.23,197.987,98.272z" fill="url(#SVGID_1_)"></path>
				<linearGradient id="SVGID_2_" gradientUnits="userSpaceOnUse" x1="106.651" y1="143.998" x2="106.651" y2="69.28">
					<stop offset="0" style="" stop-color="#28569E"></stop>
					<stop offset="1" style="" stop-color="#34B5B5"></stop>
				</linearGradient>
				<path style="" d="M84.35,98.272c-7.101-12.04-3.96-25.608-3.96-25.608s5.178,15.534,27.614,15.247
	c22.436-0.288,25.6,13.807,25.6,13.807c-6.041-7.766-14.669-8.918-26.751-8.343c-12.081,0.576-18.697-4.314-18.697-4.314
	c-1.151,11.794,11.506,22.437,11.506,22.437c-4.328-1.945-7.74-4.343-10.427-6.983c-0.47,18.775,16.18,27.334,16.18,27.334
	c-4.209-1.535-7.591-3.556-10.306-5.85c2.297,12.112,15.627,14.984,15.627,14.984c-15.76-1.576-18.159-13.387-18.503-17.778
	C83.651,113.638,84.102,101.23,84.35,98.272z" fill="url(#SVGID_2_)"></path>
				<linearGradient id="SVGID_3_" gradientUnits="userSpaceOnUse" x1="94.0342" y1="124.417" x2="187.9854" y2="124.417">
					<stop offset="0" style="" stop-color="#E66533"></stop>
					<stop offset="0.5153" style="" stop-color="#DC2E80"></stop>
					<stop offset="0.5741" style="" stop-color="#D63081"></stop>
					<stop offset="0.6792" style="" stop-color="#C23383"></stop>
					<stop offset="0.8183" style="" stop-color="#A03888"></stop>
					<stop offset="0.9847" style="" stop-color="#683A8D"></stop>
					<stop offset="1" style="" stop-color="#623A8E"></stop>
				</linearGradient>
				<path style="" d="M185.587,114.275c-5.56,3.053-13.191,2.071-13.191,2.071
	c12.102-8.286,15.59-21.259,15.59-21.259c-2.507,1.745-6.76,2.29-20.496,1.853c-13.736-0.437-19.599,6.534-19.599,6.534h-0.096
	l-6.833,23.446l-6.833-23.446c0,0-5.862-6.97-19.599-6.534c-13.737,0.437-17.989-0.108-20.497-1.853c0,0,3.489,12.974,15.59,21.259
	c0,0-7.632,0.981-13.192-2.071c0,0,2.508,12.101,13.737,19.406c0,0-5.016,0.763-8.395-0.872c0,0,4.109,5.253,9.412,7.468v13.47
	h16.325v-29.56l8.056,29.56h10.789l8.055-29.56v29.56h16.327V140.19c5.072-1.794,9.507-7.381,9.507-7.381
	c-3.379,1.635-8.395,0.872-8.395,0.872C183.079,126.376,185.587,114.275,185.587,114.275z M169.442,152.38l-6.904-4.89v-37.76
	h-9.853l2.518,6.689l-9.855,35.961l-4.387-4.89l-11.724-37.76h-9.925l6.832,6.689v35.961l-6.832-4.89v-37.76l-6.832-4.891h20.712
	l7.768,26.683v15.967l11.724-37.76l-3.955-4.891h20.712V152.38z" fill="url(#SVGID_3_)"></path>
			</svg>
		</g>		<!----></g>
	<g id="shapge_JCJXBWV6MV" transform="translate(101.89189189189187,189.72972972972974) rotate(0,0,0) scale(1.6216216216216217,1.6216216216216217)" filter="" style="cursor: move; opacity: 1;">
		<g>
			<svg xmlns="http://www.w3.org/2000/svg" version="1.1" 
				xmlns:xlink="http://www.w3.org/1999/xlink" overflow="hidden" style="top:0; left: 0" width="121" height="38" viewBox="0 0 121 38.279999999999994" preserveAspectRatio="none" data-parent="shapge_JCJXBWV6MV">
				<rect fill="rgba(0,0,0,0)" width="121" height="38"></rect>
				<rect opacity="0"></rect>
				<g transform="translate(0 0)" data-width="116">
					<path fill="#DC2E80" d="M27.41-18.88L5.25-18.88L5.25-13.11L5.25-13.11Q5.25-10.93 5.06-8.24L5.06-8.24L5.06-8.24Q4.87-5.54 4.29-2.84L4.29-2.84L4.29-2.84Q3.71-0.15 2.58 2.06L2.58 2.06L2.58 2.06Q2.29 1.71 1.74 1.33L1.74 1.33L1.74 1.33Q1.19 0.96 0.81 0.75L0.81 0.75L0.81 0.75Q1.86-1.31 2.35-3.74L2.35-3.74L2.35-3.74Q2.84-6.18 2.99-8.63L2.99-8.63L2.99-8.63Q3.13-11.08 3.13-13.11L3.13-13.11L3.13-20.94L14.82-20.94L14.82-20.94Q14.30-22.45 13.60-23.84L13.60-23.84L15.72-24.39L15.72-24.39Q16.68-22.62 17.26-20.94L17.26-20.94L27.41-20.94L27.41-18.88ZM16.15-7.60L16.15-7.60L15.02-5.89L15.02-5.89Q14.62-6.53 13.86-7.51L13.86-7.51L13.86-7.51Q13.11-8.50 12.35-9.45L12.35-9.45L12.35 2.18L10.41 2.18L10.41-8.82L10.41-8.82Q8.70-4.32 6.24-1.74L6.24-1.74L6.24-1.74Q5.97-2.12 5.58-2.52L5.58-2.52L5.58-2.52Q5.19-2.93 4.84-3.22L4.84-3.22L4.84-3.22Q8.09-6.38 9.95-12.09L9.95-12.09L6.09-12.09L6.09-13.98L10.41-13.98L10.41-18.21L12.35-18.21L12.35-13.98L15.69-13.98L15.69-12.09L12.35-12.09L12.35-11.77L12.35-11.77Q12.88-11.25 13.66-10.41L13.66-10.41L13.66-10.41Q14.44-9.57 15.15-8.77L15.15-8.77L15.15-8.77Q15.86-7.98 16.15-7.60ZM27.29-13.98L27.29-12.09L23.32-12.09L23.32-12.09Q24.21-9.51 25.51-7.15L25.51-7.15L25.51-7.15Q26.80-4.79 28.16-3.31L28.16-3.31L28.16-3.31Q27.81-3.05 27.39-2.65L27.39-2.65L27.39-2.65Q26.97-2.26 26.68-1.86L26.68-1.86L26.68-1.86Q24.42-4.87 22.62-9.77L22.62-9.77L22.62 2.18L20.65 2.18L20.65-9.31L20.65-9.31Q18.68-4.44 15.92-1.62L15.92-1.62L15.92-1.62Q15.66-2.00 15.27-2.42L15.27-2.42L15.27-2.42Q14.88-2.84 14.53-3.10L14.53-3.10L14.53-3.10Q16.21-4.52 17.69-6.95L17.69-6.95L17.69-6.95Q19.17-9.37 20.16-12.09L20.16-12.09L16.53-12.09L16.53-13.98L20.65-13.98L20.65-18.21L22.62-18.21L22.62-13.98L27.29-13.98Z" transform="translate(0 25.52)"></path>
					<path fill="#DC2E80" d="M27.12-17.31L27.12-17.31L25.26-16.12L25.26-16.12Q24.30-17.40 22.65-19.00L22.65-19.00L22.65-19.00Q21.00-20.59 19.31-21.95L19.31-21.95L21.05-22.97L21.05-22.97Q22.74-21.69 24.42-20.14L24.42-20.14L24.42-20.14Q26.10-18.59 27.12-17.31ZM8.38-22.74L8.38-22.74L10.47-22.13L10.47-22.13Q8.15-18.10 4.84-15.43L4.84-15.43L4.84-15.43Q4.52-15.72 4.00-16.12L4.00-16.12L4.00-16.12Q3.48-16.53 3.07-16.79L3.07-16.79L3.07-16.79Q6.41-19.17 8.38-22.74ZM16.41-2.96L8.87-2.96L8.87-0.55L16.41-0.55L16.41-2.96ZM8.87-8.27L16.41-8.27L16.41-10.61L8.87-10.61L8.87-8.27ZM8.87-4.47L16.41-4.47L16.41-6.73L8.87-6.73L8.87-4.47ZM25.14-2.96L18.50-2.96L18.50-0.55L26.77-0.55L26.77 1.19L8.87 1.19L8.87 2.20L6.76 2.20L6.76-11.22L6.76-11.22Q4.58-10.59 2.44-10.09L2.44-10.09L2.44-10.09Q2.23-10.50 1.86-11.06L1.86-11.06L1.86-11.06Q1.48-11.63 1.16-11.98L1.16-11.98L1.16-11.98Q7.71-13.14 13.37-15.69L13.37-15.69L13.37-24.10L15.46-24.10L15.46-16.73L15.46-16.73Q18.13-18.24 19.98-20.16L19.98-20.16L21.87-19.14L21.87-19.14Q19.72-16.94 16.75-15.25L16.75-15.25L16.75-15.25Q13.78-13.57 10.32-12.35L10.32-12.35L16.65-12.35L16.65-12.35Q16.01-13.40 15.25-14.33L15.25-14.33L17.08-14.88L17.08-14.88Q17.60-14.33 18.10-13.64L18.10-13.64L18.10-13.64Q18.59-12.96 18.94-12.35L18.94-12.35L26.48-12.35L26.48-10.61L18.50-10.61L18.50-8.27L25.14-8.27L25.14-6.73L18.50-6.73L18.50-4.47L25.14-4.47L25.14-2.96Z" transform="translate(29 25.52)"></path>
					<path fill="#DC2E80" d="M7.54-20.27L7.54-20.27L5.54-20.27L5.54-20.27Q4.50-18.21 3.19-16.79L3.19-16.79L3.19-16.79Q2.87-16.99 2.32-17.28L2.32-17.28L2.32-17.28Q1.77-17.57 1.36-17.78L1.36-17.78L1.36-17.78Q3.80-20.42 4.90-24.33L4.90-24.33L6.99-23.98L6.99-23.98Q6.70-22.91 6.26-21.89L6.26-21.89L14.01-21.89L14.01-20.27L9.60-20.27L9.60-20.27Q10.47-18.85 10.88-17.75L10.88-17.75L9.05-17.08L9.05-17.08Q8.55-18.53 7.54-20.27ZM22.30-0.43L22.30-3.22L8.35-3.22L8.35-0.43L22.30-0.43ZM20.79-8.55L20.79-11.02L8.35-11.02L8.35-8.55L20.79-8.55ZM22.91-6.90L8.35-6.90L8.35-4.90L24.42-4.90L24.42 2.18L22.30 2.18L22.30 1.25L8.35 1.25L8.35 2.23L6.21 2.23L6.21-12.67L22.91-12.67L22.91-6.90ZM12.79-17.98L12.79-17.98L14.70-18.39L14.70-18.39Q15.40-17.28 15.86-16.15L15.86-16.15L26.42-16.15L26.42-11.43L24.27-11.43L24.27-14.44L5.10-14.44L5.10-11.43L3.02-11.43L3.02-16.15L13.66-16.15L13.66-16.15Q13.28-17.11 12.79-17.98ZM18.47-21.87L18.47-21.87L27.14-21.87L27.14-20.27L21.98-20.27L21.98-20.27Q23.05-18.88 23.58-17.81L23.58-17.81L21.84-16.99L21.84-16.99Q21.55-17.69 20.98-18.57L20.98-18.57L20.98-18.57Q20.42-19.46 19.78-20.27L19.78-20.27L17.75-20.27L17.75-20.27Q16.96-18.82 16.04-17.78L16.04-17.78L16.04-17.78Q15.72-18.04 15.20-18.33L15.20-18.33L15.20-18.33Q14.67-18.62 14.27-18.79L14.27-18.79L14.27-18.79Q16.27-21.00 17.08-24.30L17.08-24.30L19.17-23.95L19.17-23.95Q18.88-22.88 18.47-21.87Z" transform="translate(58 25.52)"></path>
					<path fill="#DC2E80" d="M24.48-19.69L4.61-19.69L4.61-15.75L2.52-15.75L2.52-21.69L13.40-21.69L13.40-21.69Q12.91-22.82 12.33-23.81L12.33-23.81L14.53-24.45L14.53-24.45Q14.94-23.81 15.31-23.07L15.31-23.07L15.31-23.07Q15.69-22.33 15.95-21.69L15.95-21.69L26.65-21.69L26.65-15.75L24.48-15.75L24.48-19.69ZM22.85-13.92L22.85-13.92L24.62-12.53L24.62-12.53Q22.59-10.88 20.16-9.25L20.16-9.25L20.16-9.25Q21.17-6.35 23.16-4.09L23.16-4.09L23.16-4.09Q25.14-1.83 27.87-0.75L27.87-0.75L27.87-0.75Q27.49-0.43 27.10 0.07L27.10 0.07L27.10 0.07Q26.71 0.58 26.48 1.02L26.48 1.02L26.48 1.02Q20.88-1.68 18.47-8.18L18.47-8.18L18.47-8.18Q17.81-7.74 17.11-7.37L17.11-7.37L17.11-7.37Q17.84-4.50 17.41-2.16L17.41-2.16L17.41-2.16Q16.99 0.17 15.81 1.16L15.81 1.16L15.81 1.16Q15.14 1.74 14.47 1.96L14.47 1.96L14.47 1.96Q13.80 2.18 12.85 2.18L12.85 2.18L12.85 2.18Q11.89 2.18 10.47 2.12L10.47 2.12L10.47 2.12Q10.41 2.12 10.35 2.12L10.35 2.12L10.35 2.12Q10.35 1.65 10.19 1.10L10.19 1.10L10.19 1.10Q10.03 0.55 9.80 0.09L9.80 0.09L9.80 0.09Q11.51 0.23 12.41 0.23L12.41 0.23L12.41 0.23Q12.99 0.23 13.43 0.12L13.43 0.12L13.43 0.12Q13.86 0 14.27-0.38L14.27-0.38L14.27-0.38Q14.94-0.90 15.25-2.23L15.25-2.23L15.25-2.23Q15.57-3.57 15.40-5.37L15.40-5.37L15.40-5.37Q9.83-1.33 2.99 0.84L2.99 0.84L2.99 0.84Q2.81 0.41 2.49-0.10L2.49-0.10L2.49-0.10Q2.18-0.61 1.86-0.99L1.86-0.99L1.86-0.99Q5.45-1.86 9.09-3.61L9.09-3.61L9.09-3.61Q12.73-5.37 14.99-7.37L14.99-7.37L14.99-7.37Q14.70-8.38 14.21-9.40L14.21-9.40L14.21-9.40Q12.01-7.92 9.06-6.55L9.06-6.55L9.06-6.55Q6.12-5.19 3.45-4.35L3.45-4.35L3.45-4.35Q3.28-4.73 2.97-5.21L2.97-5.21L2.97-5.21Q2.67-5.68 2.35-6.03L2.35-6.03L2.35-6.03Q5.19-6.73 8.27-8.06L8.27-8.06L8.27-8.06Q11.34-9.40 13.34-10.85L13.34-10.85L13.34-10.85Q12.79-11.75 11.95-12.56L11.95-12.56L11.95-12.56Q7.92-10.38 3.60-9.13L3.60-9.13L3.60-9.13Q3.42-9.48 3.06-10.01L3.06-10.01L3.06-10.01Q2.70-10.53 2.41-10.85L2.41-10.85L2.41-10.85Q8.27-12.18 12.76-15.05L12.76-15.05L6.15-15.05L6.15-16.94L22.82-16.94L22.82-15.05L15.63-15.05L15.63-15.05Q14.70-14.24 13.57-13.51L13.57-13.51L13.57-13.51Q15.60-11.48 16.53-9.08L16.53-9.08L16.53-9.08Q20.13-11.43 22.85-13.92Z" transform="translate(87 25.52)"></path>
				</g>
			</svg>
		</g>		<!----></g>	<!----></svg>